<svg xmlns="http://www.w3.org/2000/svg" fill="none" viewBox="0 0 2000 1497"><g clip-path="url(#a)"><path fill="currentColor" fill-rule="evenodd" d="m0 1496.52 1999.51.48L2000 0 .002.007zM1029.89 268.667c-39.004 3.27-71.516 17.606-75.772 33.408-4.957 18.41 23.875 35.424 69.652 41.104 12.23 1.517 42.23 1.272 55.4-.455 28.09-3.682 50.16-11.828 60.17-22.208 5.52-5.725 6.99-8.722 7.05-14.363.16-16.07-25.13-30.335-63.73-35.942-12.93-1.878-39.51-2.656-52.77-1.544m-161.114 71.618H819.72v36.301h49.056v19.622c0 10.792-.243 19.622-.54 19.622-.296 0-1.731-.603-3.188-1.34s-5.078-1.895-8.046-2.572c-2.967-.678-6.499-2.229-7.848-3.447-1.349-1.219-4.106-2.743-6.127-3.389-2.31-.739-5.013-2.807-7.276-5.569-4.392-5.358-9.887-8.638-16.922-10.098-7.36-1.528-12.723-4.071-16.886-8.007-3.236-3.058-3.685-4.163-5.138-12.671-1.839-10.769-3.575-44.014-3.575-68.496v-16.899l-41.697.53-.625 30.905c-.639 31.633-2.029 52.614-3.895 58.81-.869 2.885-1.927 3.878-6.114 5.737-9.429 4.185-15.275 11.168-17.72 21.165-2.227 9.102-7.59 16.807-15.754 22.633-3.53 2.519-6.419 5.019-6.419 5.554s1.838 3.462 4.086 6.504c4.02 5.442 4.06 5.576 2.487 8.317-.879 1.532-2.138 5.393-2.796 8.58-1.028 4.979-.959 6.649.493 11.871 1.331 4.787 1.56 8.189 1.082 16.016-.752 12.286-4.072 43.369-5.411 50.655-1.785 9.709-3.731 27.642-4.9 45.13-.631 9.443-1.294 17.329-1.474 17.524s-3.773-.744-7.985-2.087a37272 37272 0 0 1-75.845-24.275 30437 30437 0 0 0-50.527-16.182l-48.074-15.344c-36.803-11.749-42.801-13.597-43.986-13.558-.629.022-3.574 3.191-6.542 7.042s-11.784 14.982-19.592 24.734-17.52 21.948-21.584 27.101c-8.221 10.425-27.91 35.095-47.883 60-7.23 9.014-12.857 16.857-12.503 17.429s9.094 7.764 19.425 15.986c10.331 8.22 45.607 36.359 78.392 62.53 32.783 26.171 61.024 48.687 62.756 50.036s8.037 6.434 14.011 11.301c5.975 4.866 13.724 11.047 17.222 13.736 3.497 2.687 7.355 5.777 8.574 6.866l2.216 1.98-13.48 10.775c-16.399 13.107-4.447 3.569-83.818 66.89-98.543 78.616-102.415 81.7-104.382 83.139-2.367 1.731-3.628-.08 23.631 33.908 4.543 5.67 11.582 14.5 15.64 19.62 4.059 5.13 7.818 9.85 8.355 10.48.537.64 7.412 9.25 15.279 19.14 7.866 9.88 14.837 18.63 15.49 19.44s3.83 4.77 7.059 8.81c3.23 4.03 6.602 8.22 7.494 9.32.891 1.09 4.349 5.4 7.683 9.58 3.334 4.19 6.362 7.61 6.731 7.61s8.389-2.48 17.826-5.5c9.435-3.02 23.116-7.4 30.401-9.73 7.284-2.33 22.958-7.34 34.829-11.12s45.106-14.41 73.854-23.62c28.749-9.21 52.479-16.75 52.735-16.75s.465 29.57.465 65.72v65.71l2.208.54c1.213.29 26.931.41 57.149.26l54.943-.27.499-199.646 17.161-13.595.499 212.751h38.255v-63.61c0-34.98.25-63.86.555-64.16.306-.31 3.286.53 6.622 1.85 8.179 3.24 19.607 7.26 19.799 6.96.086-.13 2.638-7.41 5.671-16.18 6.127-17.7 6.195-16.58-1.143-18.96-1.409-.45-8.963-3.2-16.788-6.11l-14.226-5.29-.565-16.87 10.584-10.222c5.821-5.62 12.188-11.606 14.148-13.3l3.563-3.082h26.722v96.144h93.205l.001-32.86-27.225.28c-14.975.16-28.227.04-29.448-.27l-2.221-.55.518-62.253 70.144-.426v97.059h34.32l.51-96.633 26.98-.661v21.754h52.88l11.91 9.91-.52 44.29-30.93-.17c-17.02-.1-31.7.12-32.63.47-1.57.61-1.69 5.03-1.69 65.3v64.65h92.23v-35.32h-64.78l.51-59.36 65.25-.52v-28.43c0-15.65.34-28.44.75-28.44.42 0 2.79 1.67 5.27 3.73 2.93 2.42 6.8 4.38 11.02 5.59l6.51 1.86v144.81h38.26v-63.77c0-40.2.35-63.77.94-63.77 1.02 0 8.55 2.66 18.36 6.47 7.34 2.86 7.87 2.88 8.66.4.34-1.08 1.15-1.97 1.78-1.96.64 0 8.01 2.24 16.37 4.98 8.37 2.74 24.92 8.05 36.79 11.82 11.87 3.76 31.74 10.1 44.15 14.09 91.84 29.53 82 26.59 83.34 24.84.57-.75 7.22-9.02 14.77-18.38 7.56-9.35 14.62-18.16 15.7-19.58 1.08-1.41 18.85-23.69 39.49-49.51s37.5-47.236 37.47-47.587c-.04-.351-17.06-14.104-37.84-30.562-20.77-16.458-38.29-30.365-38.93-30.905-2.87-2.414-21.57-17.464-29.13-23.445-4.59-3.627-9-7.125-9.81-7.774-.81-.647-8.07-6.471-16.13-12.94-8.06-6.471-16.94-13.53-19.74-15.688s-12.76-10.076-22.14-17.593c-9.37-7.518-19.81-15.873-23.18-18.567s-6.13-4.998-6.13-5.12 14.02-11.404 31.15-25.073c17.13-13.667 31.81-25.387 32.62-26.046 5.33-4.325 35.34-28.325 37.6-30.066 3.2-2.46 15.66-12.4 29.12-23.229 5.12-4.125 23.56-18.87 40.96-32.767s31.64-25.506 31.64-25.798-1.21-1.966-2.7-3.719c-1.48-1.753-5.64-6.888-9.25-11.412a4633 4633 0 0 0-14.71-18.355c-4.5-5.572-9.05-11.329-10.13-12.794s-8.15-10.344-15.7-19.731-15.46-19.304-17.57-22.036c-3.54-4.575-10.47-13.299-13.91-17.514-.79-.966-6.56-8.14-12.82-15.943s-11.8-14.187-12.3-14.187c-.51 0-9.17 2.62-19.26 5.823-28.81 9.154-68.96 21.981-97.31 31.086-14.3 4.594-32.84 10.538-41.2 13.208-8.37 2.671-19.18 6.136-24.04 7.701s-17.44 5.569-27.96 8.899c-47.75 15.109-50.59 16.096-54.06 18.783l-3.54 2.736-3.24-4.629c-3.48-4.961-15.32-16.893-16.77-16.893-1.53 0-.96-2.165 1.4-5.303 1.25-1.67 3.1-5.023 4.09-7.451 1.47-3.581 2.72-4.867 6.61-6.812 5.25-2.627 10.57-8.923 10.57-12.513 0-2.134.36-2.259 6.62-2.267 8.59-.01 20.33-2.855 26.37-6.387 7.46-4.365 14.27-11.449 19.05-19.788 4.33-7.578 4.37-7.728 4.37-16.975 0-8.359-.27-9.798-2.64-13.815-4.29-7.306-12.51-11.696-21.89-11.691-4.72.003-16.12 2.793-25.51 6.248-7.33 2.699-14.28 3.223-20.35 1.536-3.8-1.054-4.59-2.573-2.46-4.707.82-.818 1.21-4.388 1.19-10.743l-.04-9.516-5.51-11.34c-3.03-6.238-6.71-12.772-8.18-14.521s-4.83-6.13-7.45-9.733l-4.78-6.551v-8.606c0-7.526-.22-8.611-1.72-8.647-.94-.022-6.35-.044-12.02-.048-8.35-.005-11.63-.461-17.33-2.412-5.85-2.001-8.91-2.404-18.24-2.404-7.12 0-12.97.534-16.02 1.461-7.67 2.326-7.38 2.688-7.06-8.574l.28-10.056 100.56-.509v-24.51H944.322v24.528h88.228l.56 20.097 2.95.519c4.25.75 1.43 2.164-3.72 1.861-2.27-.134-15.72-.17-29.89-.078l-25.752.166v24.488l40.472.53-4.29 5.284c-2.36 2.906-6.23 7.431-8.6 10.056l-4.304 4.773h-23.335l.061 27.225c.042 18.76-.264 27.147-.982 26.971-.98-.239-6.908-4.119-27.964-18.301-4.857-3.271-11.279-7.277-14.272-8.902-2.992-1.626-9.044-5.605-13.448-8.843l-8.008-5.886-.083-196.711h-43.169zm157.374-49.588c-16.67 2.589-30.059 8.481-31.399 13.814-2.714 10.817 21.809 19.105 56.489 19.09 40.57-.018 67.11-13.296 49.23-24.637-10.05-6.378-27.94-9.732-51.17-9.593-8.36.05-18.78.647-23.15 1.326m-266.46 99.987c-3.427 1.818-7.588 3.604-9.245 3.968-1.658.364-4.648 2.335-6.644 4.38-3.075 3.149-3.668 4.462-3.876 8.589-.24 4.752-1.059 6.543-6.728 14.71-2.851 4.107-6.075 17.472-5.526 22.909l.315 3.114 7.25.171c9.909.235 10.753-1.102 5.507-8.719-5.064-7.352-5.236-13.852-.496-18.777 1.74-1.807 2.91-2.233 4.829-1.758 3.066.759 13.732 6.057 15.778 7.838 2.466 2.146 8.912 3.427 17.282 3.432 6.564.004 8.416.363 10.547 2.039 1.422 1.118 2.585 2.391 2.585 2.828 0 1.379-12.208 8.814-15.581 9.488-1.776.355-3.453 1.232-3.729 1.948-.36.941-1.565.448-4.33-1.774-2.106-1.693-4.104-2.804-4.439-2.47-.335.335.99 3.697 2.943 7.472s3.552 7.096 3.552 7.38-1.133.086-2.517-.44-3.371-.957-4.415-.957c-2.908 0-2.45 4.696.8 8.192 3.185 3.428 2.247 2.953-7.859-3.976-4.188-2.872-9.487-5.919-11.774-6.772-2.288-.853-5.151-2.025-6.363-2.605-4.019-1.921-10.798-1.297-13.502 1.244-2.857 2.684-2.959 3.863-.847 9.804 1.272 3.577 1.461 6.93.996 17.669-.316 7.291-1.013 16.562-1.55 20.603s-1.693 14.192-2.567 22.556-2.031 15.74-2.57 16.39c-.54.651-.734 1.583-.432 2.072s-.072 4.813-.83 9.609c-2.462 15.563-3.793 44.531-2.488 54.15.637 4.691 1.272 9.413 1.413 10.493.141 1.079.567 4.169.948 6.867s.704 5.347.718 5.887.378 1.422.81 1.962c1.112 1.391 1.808 5.402 2.948 16.979.548 5.562 1.503 11.08 2.124 12.264 2.982 5.689 7.009 9.351 14.276 12.985l7.662 3.832 20.654-.247c23.061-.274 42.756-1.414 87.395-5.057 7.084-.578 13.585-.781 14.444-.452.861.331 1.768 1.993 2.017 3.695.904 6.178 2.524 23.032 3.55 36.942.577 7.824 1.485 19.303 2.017 25.508.533 6.206 1.235 22.982 1.56 37.282.515 22.657.826 26.467 2.42 29.642 1.566 3.117 7.021 10.451 12.463 16.757 1.382 1.601 1.369 1.702-.143 1.122-1.72-.66-11.197-12.044-12.975-15.586-.555-1.106-1.553-2.012-2.217-2.012-2.207 0-16.363 32.819-15.427 35.766.562 1.772 14.33 12.799 15.98 12.799.452 0 2.317 1.103 4.146 2.452s3.107 2.453 2.843 2.453c-.266 0-4.635-2.207-9.711-4.905-5.075-2.699-9.735-4.906-10.356-4.906s-2.349 1.129-3.837 2.509c-2.236 2.072-2.6 3.047-2.091 5.594.339 1.697 1.506 4.031 2.592 5.187 2.234 2.378 1.853 4.473-1.506 8.294-3.586 4.078-6.715 13.214-6.099 17.807.297 2.209 1.036 4.512 1.645 5.121.608.608 5.389 1.375 10.624 1.704 9.143.575 8.993.597-3.782.563-7.316-.02-13.828.29-14.471.688-1.542.952-1.503 4.233.056 4.863.675.272-.223.53-1.993.572-3.522.084-5.07 2.19-3.234 4.401.93 1.12 10.187 1.371 53.335 1.439 51.246.083 57.335-.247 53.682-2.912-1.197-.873-1.105-.951.491-.419 1.079.36 5.052.902 8.83 1.206 3.777.304 7.309.891 7.849 1.304.539.414 4.071 1.048 7.848 1.411 3.778.362 9.517 1.107 12.755 1.656 8.047 1.363 19.011 1.803 19.641.788.89-1.433-2.31-2.627-39.597-14.804-12.712-4.151-16.118-6.271-4.476-2.786 3.725 1.114 9.2 2.711 12.168 3.546s6.279 1.887 7.358 2.335c1.079.45 6.598 2.197 12.264 3.885 5.666 1.686 11.623 3.641 13.243 4.344 7.63 3.31 15.38 4.268 12.67 1.566-1.47-1.472-43.967-16.616-46.761-16.664-.945-.017-1.717-.361-1.717-.766s-2.759-1.56-6.132-2.569c-7.261-2.171-10.968-3.426-14.962-5.064-1.619-.665-8.241-2.829-14.717-4.809-6.475-1.979-12.546-4.022-13.49-4.539-3.563-1.951-7.876 3.615-9.195 11.866-.346 2.163-1.013 4.17-1.481 4.459-.469.29-.852 1.316-.852 2.279 0 .964-.897 2.564-1.993 3.556-1.863 1.686-2.1 1.696-3.635.162-1.823-1.824-1.54-3.072 3.38-14.906 1.345-3.238 2.851-6.918 3.346-8.178.806-2.056 1.322-2.226 5.05-1.661 2.284.347 5.036 1.015 6.116 1.485 1.079.47 8.584 2.495 16.679 4.498s15.158 3.969 15.697 4.367c.54.398 3.63 1.45 6.868 2.338 7.779 2.134 32.558 9.951 41.209 13 6.56 2.315 19.26 6.379 25.51 8.168 1.62.463 5.37 1.705 8.34 2.759 2.96 1.055 8.26 2.679 11.77 3.61s8.67 2.507 11.47 3.502c4.97 1.767 5.14 1.765 7.46-.058 1.94-1.523 2.5-3.099 3.03-8.529.36-3.663 1.07-9.089 1.57-12.056.51-2.968 1.44-8.487 2.07-12.264s1.33-7.751 1.55-8.83.83-4.611 1.36-7.849c.53-3.237 1.65-10.081 2.48-15.207.84-5.126 2.02-11.528 2.63-14.226s1.01-5.457.87-6.132c-.13-.674.17-1.226.66-1.226.5 0 1.14-2.098 1.43-4.66 2.05-17.979 4.74-25.37 15.38-42.388 2.55-4.072 4.81-7.844 5.03-8.384.38-.924 3.89-6.385 11.37-17.668 1.79-2.702 3.26-5.284 3.26-5.735s.83-1.993 1.85-3.426c4.86-6.862 22.33-41.388 24.65-48.715.68-2.159 2.25-5.942 3.48-8.408 2.88-5.74 7.3-22.309 7.3-27.34 0-2.13.44-4.144.98-4.477 1.2-.739 1.32-12.92.14-13.649-.46-.286-1.09-2.668-1.4-5.293-1.87-15.785-13.93-32.439-28.41-39.241-5.92-2.783-7.3-5.447-4.17-8.048.82-.676 1.76-2.942 2.09-5.034.34-2.092 1.97-5.898 3.63-8.457 4.76-7.323 5.72-9.259 6.96-13.973 1.21-4.616 2.74-5.84 11.6-9.268 3.41-1.321 3.68-1.712 3.68-5.409 0-2.192-.84-5.857-1.88-8.145-1.02-2.287-2.07-5.414-2.33-6.95-.44-2.644-.3-2.767 2.61-2.329 1.69.255 5.5 1.442 8.46 2.641 7.67 3.094 24 3.282 30.42.352 5.97-2.728 12.91-9.074 15.25-13.952 1.05-2.206 2.14-4.015 2.41-4.022.27-.006.46-2.329.42-5.161-.06-4.421-.41-5.328-2.45-6.395-3.22-1.678-10.67-.677-18.08 2.427-12.16 5.092-25.09 6.476-35.81 3.833-6.69-1.647-23.48-8.118-25.5-9.819-.82-.693-4.35-2.87-7.86-4.839-7.32-4.107-10.37-6.318-9.68-7.009.27-.266 2.84-.822 5.72-1.237 2.88-.414 5.16-1.195 5.07-1.735-.18-1.02-18.64-.959-28.45.095-3.66.393-5.06.24-4.6-.501.36-.585 3.17-1.072 6.24-1.081s13.09-.891 22.26-1.961c9.18-1.07 17.46-1.946 18.4-1.946.94-.001 1.72-.467 1.72-1.034 0-.694-6.44-.971-19.65-.846-10.81.103-19.89-.044-20.17-.327-.28-.285 4.48-.841 10.58-1.238 15.27-.994 17.37-2.663 8.51-6.785-6.25-2.907-7.85-5.484-9.58-15.49-1.17-6.742-1.96-9.11-3.05-9.11-1.03 0-1.56 1.241-1.77 4.093-.39 5.378-2.07 6.78-6.3 5.269-1.77-.629-4.98-1.365-7.14-1.633-2.16-.27-5.21-1.126-6.77-1.903-1.57-.776-3.38-1.412-4.03-1.412-.66 0-2.82-1.103-4.8-2.452-1.99-1.349-4.72-2.453-6.06-2.453s-4.02-.662-5.96-1.472c-4.25-1.776-7.39-1.88-8.97-.294-.76.759-1.18.804-1.18.126 0-.579 2.42-3.409 5.39-6.288 5.86-5.699 6.03-8.867.24-4.449-3.72 2.837-5.25 3.184-5.9 1.34-1.32-3.725-19.87 12.551-25.73 22.574-1.7 2.907-3.86 5.264-5.11 5.584-1.45.372-2.51 1.76-3.22 4.226-1.83 6.382-2.95 19.168-2.12 24.389.52 3.279.29 8.979-.67 16.435-1.21 9.325-1.25 11.842-.22 13.75 1.22 2.29.73 7.755-.91 9.925-.4.54-1.71 3.851-2.91 7.358-2.28 6.723-4.37 9.811-6.61 9.811-1.494 0-5.599-2.372-8.645-4.995-1.079-.931-3.907-2.695-6.285-3.923-3.579-1.847-4.004-2.343-2.473-2.879 1.558-.548 1.158-1.08-2.546-3.386-2.416-1.506-7.631-4.887-11.588-7.512-3.957-2.627-7.6-4.775-8.095-4.775-.494 0-.899-.442-.899-.981 0-.54-.909-.981-2.02-.981-1.338 0-1.781.413-1.314 1.226.403.7.328.881-.175.421-.485-.443-.886-1.514-.893-2.38-.007-.867-2.11-2.81-4.673-4.317s-4.66-2.302-4.66-1.764-1.31.3-2.91-.527c-1.618-.837-2.696-2.06-2.429-2.757.606-1.579-14.531-11.707-16.416-10.984-.747.287-2.227-.183-3.292-1.045s-1.381-1.286-.707-.944c.675.341 1.226.106 1.226-.523s-.667-.888-1.483-.575-2.913-.284-4.661-1.326a133 133 0 0 0-6.381-3.526c-1.763-.898-3.467-2.057-3.787-2.575-.321-.519.734-.262 2.344.571 1.61.832 3.201 1.239 3.536.904.601-.602-.086-1.181-5.685-4.785l-2.871-1.849.586 2.245c.474 1.811.33 2.032-.744 1.14-1.88-1.561-5.192.387-5.977 3.513-.612 2.442 1.703 6.31 3.779 6.31.504 0 6.216 3.532 12.694 7.849 6.477 4.317 12.007 7.849 12.289 7.849s3.662 2.096 7.511 4.66c3.848 2.564 8.513 5.476 10.364 6.473 1.852.998 7.909 4.862 13.46 8.585 5.55 3.724 10.396 6.771 10.768 6.771s2.042 1.019 3.712 2.264 5.464 3.754 8.431 5.576c12.437 7.637 16.079 10.027 14.226 9.334-1.079-.403-3.996-.95-6.483-1.216l-4.521-.483-7.988 7.817c-4.556 4.459-7.988 8.635-7.988 9.719 0 1.997 6.279 8.499 11.283 11.683 3.59 2.285 15.178 7.304 16.862 7.304.672 0 2.672.644 4.444 1.431 1.774.787 7.194 2.592 12.054 4.012 11.49 3.358 17.98 6.403 21.43 10.059 1.69 1.788 4.14 6.769 6.21 12.614 4.78 13.562 4.67 13.09 2.99 13.09-3.39 0-14.56-4.15-17.24-6.402-1.59-1.335-3.37-2.427-3.97-2.427-.59 0-1.09-.331-1.09-.736-.01-.405-2.99-2.281-6.62-4.17-3.64-1.888-6.84-3.714-7.11-4.056s-4.46-2.637-9.319-5.099c-16.223-8.225-29.723-17.546-46.775-32.296-10.816-9.356-12.104-9.627-11.631-2.453.098 1.483-.032 2.698-.288 2.698s-2.769-1.549-5.583-3.444c-2.814-1.893-6.28-3.733-7.702-4.087-2.82-.701-9.448-4.2-14.832-7.827-1.878-1.266-3.915-2.302-4.526-2.302s-4.151-2.219-7.866-4.933c-14.224-10.384-23.252-17.215-25.267-19.119-1.152-1.088-3.926-3.215-6.165-4.726-2.24-1.512-7.793-6.581-12.341-11.267-12.554-12.936-25.368-23.886-31.783-27.16-3.171-1.619-5.986-3.212-6.256-3.541s-2.168-1.198-4.219-1.932c-2.05-.734-5.141-2.525-6.868-3.982-4.461-3.762-2.651-5.297 6.076-5.149 7.472.127 12.16 2.306 19.262 8.948 14.216 13.3 38.318 29.623 69.143 46.83 5.666 3.163 13.393 7.558 17.17 9.769 3.777 2.21 8.192 4.676 9.811 5.478 1.619.804 3.164 1.704 3.434 2.002.27.299 2.919 1.784 5.887 3.301s6.058 3.26 6.867 3.874c1.87 1.419 5.705 3.569 6.364 3.569.278 0 .504-.61.504-1.355 0-1.452-6.043-6.493-7.783-6.493-.576 0-1.047-.404-1.047-.897 0-.494-2.759-2.482-6.132-4.42s-7.898-4.62-10.056-5.96c-2.159-1.341-4.808-2.836-5.887-3.324-1.726-.78-15.138-8.664-34.707-20.401-5.705-3.423-36.364-23.59-41.931-27.582-3.613-2.591-2.519-5.072 5.452-12.369 6.768-6.195 7.567-6.65 10.89-6.205 1.973.265 5.485 1.856 7.805 3.538 5.396 3.908 7.149 3.845 10.364-.37 3.394-4.449 2.771-9.556-1.43-11.728-4.408-2.279-6.201-5.822-5.457-10.779.748-4.992.066-6.54-6.593-14.962-4.995-6.318-8.138-8.053-14.327-7.908-2.334.054-4.087-.764-6.377-2.976-1.738-1.679-5.708-4.026-8.823-5.215-4.488-1.713-6.393-3.153-9.171-6.939-4.009-5.461-5.139-6.191-10.962-7.081-2.317-.353-4.966-1.052-5.887-1.552s-3.302-1.169-5.294-1.486a9.97 9.97 0 0 1-5.982-3.385c-2.125-2.525-8.548-6.691-8.548-5.544 0 .799-10.229-2.504-11.774-3.803-1.398-1.175-7.286-3.477-8.894-3.477-.414 0-3.558 1.487-6.986 3.306m3.862 3.606c-2.571 1.549-2.092 2.842 1.626 4.396 5.813 2.428 7.449 5.544 7.449 14.181 0 6.082.351 7.882 1.794 9.188 2.822 2.554 6.371 2.024 8.843-1.319 2.731-3.693 4.08-3.743 4.08-.153 0 2.467 2.493 6.039 4.213 6.039.574 0 8.616-6.643 12.711-10.5.944-.888 1.717-2.589 1.717-3.778 0-3.432-2.333-4.677-7.35-3.925-2.433.365-4.424.275-4.424-.199s-1.418-2.709-3.153-4.966c-2.571-3.346-3.749-4.103-6.382-4.103-1.776 0-5.501-1.096-8.279-2.436-6.156-2.97-10.561-3.802-12.845-2.425m-4.17 6.287c4.96 4.542 8.257 6.832 8.906 6.184.567-.567-5.388-5.417-9.887-8.054-2.484-1.455-2.331-1.164.981 1.87m49.579 12.269c-1.165.736-.971 1.087 1.022 1.844 3.595 1.368 5.071 3.612 5.183 7.888.129 4.941-1.113 6.28-9.715 10.474-17.844 8.7-26.443 23.624-18.44 32.009l2.786 2.918-2.699 2.33c-3.737 3.228-3.371 3.789 1.013 1.552 5.918-3.019 14.254-4.178 21.601-3.005 3.503.56 7.187 1.455 8.188 1.992 3.622 1.938 1.703.123-3.576-3.382-6.098-4.049-6.745-5.524-2.419-5.524 2.333 0 3.392-.707 4.905-3.27 1.997-3.384 8.599-9.24 12.351-10.956 2.624-1.2 10.182-8.013 10.182-9.178 0-.465-3.321-4.099-7.38-8.078s-8.295-9.122-9.413-11.431-2.972-4.856-4.121-5.661c-2.337-1.636-7.276-1.909-9.468-.522m21.984 13.869c-.253.41.421 1.027 1.499 1.369 2.739.869 10.823 9.148 10.823 11.082 0 1.87-7.386 12.714-10.276 15.088-1.093.897-1.746 1.876-1.45 2.172.295.297 3.386-1.417 6.868-3.808 3.481-2.392 6.813-4.363 7.404-4.38.59-.017 1.877-.919 2.859-2.004 2.344-2.589 1.362-4.417-7.203-13.406-5.932-6.227-9.258-8.159-10.524-6.113m18.209 9.075c0 .726 1.067 2.561 2.372 4.08 2.963 3.447 2.879 9.359-.207 14.589l-2.113 3.583 2.671-.642c5.566-1.337 13.955-6.808 13.955-9.1 0-1.084-3.46-5.634-7.72-10.15-3.556-3.771-8.958-5.194-8.958-2.36m29.82 36.616c-.952 1.529-2.561 3.723-3.577 4.875-1.823 2.069-1.811 2.118.957 4.089 5.064 3.607 13.782 8.042 15.804 8.042 2.638 0 6.051-4.48 6.051-7.943 0-2.989-3.288-6.795-5.826-6.741-1.159.025-.995.481.675 1.875 4.014 3.348 2.292 3.055-2.569-.438-2.628-1.887-5.132-3.431-5.565-3.431s-1.559-.7-2.504-1.555c-1.586-1.436-1.849-1.342-3.446 1.227m-103.729 6.628c-.728 1.897-3.011 37.163-3.547 54.773-.122 4.015-1.697 1.217-2.763-4.905-.634-3.642-1.315-7.064-1.513-7.604-.199-.539-.709-3.188-1.134-5.886-1.133-7.195-2.19-8.582-2.967-3.896-.355 2.143-1.111 6.149-1.68 8.903-.57 2.754-.776 6.507-.458 8.34.317 1.832 1.015 5.98 1.55 9.218 1.495 9.046 2.534 12.554 5.715 19.294 6.484 13.733 10.364 24.137 11.272 30.222 1.323 8.858 1.779 11.111 2.164 10.692.182-.198-.241-5.876-.94-12.617-.7-6.74-1.053-12.609-.786-13.042.774-1.252 4.027 5.882 4.739 10.393.357 2.262 1.136 5.812 1.731 7.888 1.067 3.714 1.144 3.765 4.914 3.162 2.107-.337 5.535-1.482 7.62-2.545s6.348-2.858 9.476-3.988c3.127-1.13 7.894-3.089 10.592-4.353s9.118-3.887 14.267-5.831c10.274-3.877 16.846-7.45 14.921-8.113-.674-.231-1.227-.963-1.227-1.624 0-.663-1.877-3.407-4.169-6.099-7.914-9.291-19.377-23.672-19.377-24.309 0-.282-.994-1.56-2.208-2.841-3.294-3.475-7.404-8.463-7.771-9.431-1.574-4.159-17.672-20.703-20.154-20.713-2.627-.008-6.759-3.069-9.398-6.958-2.442-3.598-5.6-11.836-5.6-14.607 0-.88-.592-2.408-1.314-3.396-1.218-1.665-1.361-1.674-1.955-.127m36.626 17.585c3.91 4.258 26.884 24.517 32.436 28.604 6.156 4.529 10.289 7.907 10.971 8.967.909 1.413 7.65 5.447 7.503 4.489-.166-1.085-19.177-18.356-26.872-24.412-3.778-2.973-7.754-6.139-8.837-7.036-4.086-3.383-14.768-11.578-16.182-12.414-.809-.478-.368.333.981 1.802m113.81 3.006c0 .186.662.888 1.471 1.56.849.705 1.472.8 1.472.225 0-.547-.662-1.25-1.472-1.561s-1.471-.411-1.471-.224m5.886 3.894c0 .203.773.976 1.717 1.717 1.556 1.219 1.59 1.185.371-.371-1.282-1.635-2.088-2.154-2.088-1.346m19.844 13.928c.932.975 1.963 1.503 2.292 1.174s-.434-1.126-1.693-1.773c-2.191-1.123-2.218-1.097-.599.599m11.487 7.099c1.314 1.066 3.742 2.685 5.396 3.596l3.008 1.659-2.387-1.939c-1.314-1.067-3.743-2.685-5.397-3.597l-3.008-1.659zm11.838 7.981c1.349 1.14 3.336 2.573 4.415 3.185 1.649.937 1.779.893.811-.272-.632-.764-2.619-2.197-4.415-3.186l-3.264-1.799zm7.438 28.306c-7.651 8.095-10.4 11.3-10.022 11.678.219.219 3.25-.949 6.737-2.596 7.195-3.401 8.339-3.541 12.983-1.602 3.905 1.632 6.411 5.88 6.411 10.866 0 2.482.748 4.276 2.527 6.055 5.79 5.787 4.83-2.71-1.317-11.66-5.426-7.904-11.351-15.31-12.699-15.876-.653-.274-2.732 1.137-4.62 3.135m-68.267 11.413c0 .23.553 1.003 1.227 1.716 19.868 21.004 22.179 23.637 24.25 27.637 1.762 3.401 6.758 6.033 13.255 6.982 2.685.391 6.646 1.612 8.801 2.712 4.455 2.272 9.372 3.842 9.372 2.992 0-.314-1.392-2.381-3.093-4.592-3.577-4.646-11.994-11.759-18.111-15.303-2.328-1.349-8.554-5.348-13.836-8.886-18.501-12.396-21.865-14.436-21.865-13.258m78.489 2.406c0 .54.441 1.254.981 1.588.54.333.981.164.981-.375 0-.54-.441-1.254-.981-1.588-.54-.333-.981-.164-.981.375m-143.978 5.845c-2.69 1.012-4.17 2.17-4.17 3.263 0 .951 3.548 4.492 8.094 8.08 7.15 5.64 11.663 10.133 23.26 23.153l3.059 3.434-2.98-4.557c-1.639-2.507-2.981-5.077-2.981-5.71 0-.634-1.372-3.149-3.051-5.588-2.351-3.416-2.782-4.695-1.882-5.572.894-.87 1.789-.443 3.787 1.805 4.025 4.526 8.014 7.82 8.014 6.618 0-.595-.662-1.744-1.472-2.553-.809-.81-1.471-1.842-1.471-2.295 0-1.532-21.116-21.884-22.582-21.765-.8.065-3.332.824-5.625 1.687m-19.868 6.799c0 .434 2.205 2.962 4.9 5.616 2.694 2.654 4.526 5.199 4.071 5.654-.457.457-2.948-.297-5.537-1.673-4.584-2.437-10.661-3.321-11.665-1.697-.274.444 1.686 3.196 4.357 6.117 2.671 2.919 4.855 5.671 4.855 6.115 0 .442 1.693 3.32 3.761 6.393 3.893 5.784 9.352 16.779 13.614 27.416 2.54 6.342 3.458 7.011 6.479 4.721 1.422-1.077 1.639-2.089 1.086-5.042-.923-4.918-7.514-18.087-12.816-25.608-6.358-9.017-5.711-11.775 1.397-5.956 2.142 1.754 6.838 5.396 10.436 8.094s7.7 6.12 9.115 7.603c1.414 1.484 2.947 2.698 3.404 2.698 2.144 0-12.711-19.323-20.693-26.918-4.908-4.67-3.725-5.854 2.66-2.66 1.998.999 5.984 3.026 8.858 4.503 2.873 1.479 5.429 2.484 5.679 2.233.251-.249-1.738-2.425-4.417-4.835-4.832-4.343-16.873-10.909-21.981-11.988-1.462-.308-3.761-.789-5.11-1.069-1.349-.281-2.453-.153-2.453.283m242.65 8.395c-4.06 1.501-5.11 2.623-2.44 2.623 1.17 0 2.12.407 2.12.905s1.59 1.429 3.53 2.07 6.36 3.103 9.82 5.472 6.62 4.325 7.02 4.348c1.5.081 7.44 5.834 6.75 6.527-.4.396-1.47.205-2.39-.426-5.88-4.04-21.01-12.166-27.25-14.634-1.58-.624-5.08-1.409-7.78-1.743s-6.56-.857-8.58-1.16c-3.83-.572-4.69.403-2.42 2.741 1.22 1.265 3.58 5.075 8.12 13.121 2.33 4.133 5.75 13.148 7.24 19.08.48 1.888 1.52 5.862 2.32 8.83s1.5 8.707 1.55 12.754c.11 8.584 2 20.603 3.25 20.603.49 0 .57-4.924.19-11.283-.6-10.094-.5-11.282.94-11.282.89 0 1.62.461 1.62 1.024s2.1 3.594 4.66 6.735c6.87 8.416 15.92 19.992 16.92 21.645.48.794 1.1 1.22 1.37.946.28-.273-3.05-5.779-7.4-12.235-4.34-6.456-8.14-12.343-8.44-13.083-.3-.739-2.91-4.912-5.79-9.272-2.89-4.36-5.25-8.28-5.25-8.712 0-1.886 2.37-.429 6.9 4.249 2.68 2.766 4.88 4.784 4.88 4.483s-1.75-3.177-3.88-6.392c-2.14-3.214-4.87-7.771-6.07-10.126-1.2-2.353-3.43-6.126-4.95-8.381s-2.76-4.353-2.76-4.66c0-1.663 3.05-.104 6.11 3.12 1.92 2.024 4.09 4.176 4.82 4.783s6.11 6.016 11.95 12.019c5.83 6.002 10.83 10.913 11.1 10.913.26 0 1.65 1.387 3.08 3.081 3.1 3.691 12.06 10.913 12.72 10.256 1.64-1.641-25.54-39.545-31.2-43.507-2.14-1.503-2.56-4.168-.65-4.168.69 0 4.15 2.76 7.69 6.132 8.91 8.492 17.55 16.461 21.01 19.388 3.22 2.728 19.58 7.81 27.3 8.487 2.9.254 6.69-.221 9.68-1.211l4.9-1.629-.43-6.018c-1.06-14.693-13.96-31.687-30.32-39.944-12.25-6.177-19.45-7.748-35.2-7.679-7.56.033-14.58.553-16.36 1.21m-264.424.188c-.599.607 7.993 11.882 10.106 13.264 1.197.782 12.649 20.841 12.649 22.155 0 1.276 2.73 10.63 3.975 13.618.449 1.08 1.096 3.508 1.437 5.396 1.278 7.062 1.168 6.959 4.891 4.587 3.957-2.52 4.037-3.292 1.454-13.976-4.064-16.811-11.579-30.599-22.329-40.968-3.766-3.632-10.424-5.86-12.183-4.076m226.824 2.25c0 .438.78 1.652 1.73 2.698 4.51 4.978 8.31 10.51 10.16 14.823 1.12 2.607 2.84 6.505 3.83 8.663 2.2 4.821 7.83 25.122 7.83 28.24 0 1.25.55 2.824 1.23 3.499.88.881 1.22 5.76 1.22 17.353v16.126l4.21-4.648c2.53-2.791 4.11-5.431 3.95-6.609-.13-1.079.06-2.455.43-3.057.38-.602.06-4.101-.71-7.777s-1.22-6.977-1-7.337c.84-1.348-5.15-27.887-7.4-32.846-7.34-16.149-8.7-18.628-12.71-23.315-3.33-3.883-12.77-8.18-12.77-5.813m55.66.783c-1.24 1.237-.78 2.346.98 2.346 2.32 0 14.91 4.819 17.93 6.861 1.35.914 5.1 2.923 8.34 4.466 3.23 1.544 6.19 3.256 6.57 3.805.89 1.312 2.16.028 1.31-1.336-1.08-1.751-11.98-8.82-16.95-10.999-2.57-1.125-6.88-2.685-9.58-3.468-2.69-.783-5.57-1.64-6.4-1.905-.82-.265-1.81-.162-2.2.23m-204.878 7.987c.497.944 1.874 4.145 3.06 7.113a312 312 0 0 0 4.364 10.301c1.214 2.698 2.54 6.01 2.943 7.359.404 1.349 1.335 3.777 2.067 5.396s3.092 7.137 5.241 12.263c2.151 5.126 3.931 8.59 3.955 7.696.058-2.029-4.419-24.673-5.768-29.174-1.132-3.78-.519-5.622 1.355-4.067.689.572 3.629 4.812 6.535 9.422a1303 1303 0 0 0 11.403 17.685c3.366 5.117 7.281 11.383 8.697 13.927 3.379 6.061 6.379 10.245 6.942 9.681.248-.248-.004-1.267-.561-2.264s-2.753-6.006-4.88-11.132c-2.127-5.127-4.877-11.629-6.109-14.45-2.272-5.199-1.858-8.273.63-4.68.747 1.078 1.817 2.496 2.377 3.151.561.655 2.012 2.643 3.222 4.418 2.911 4.267 7.794 10.757 9.269 12.32.649.687 3.26 3.897 5.802 7.133l4.622 5.883 2.26-2.123c2.136-2.006 2.384-2.034 4.5-.5 1.232.893 3.785 2.672 5.674 3.954 1.888 1.282 4.731 3.705 6.315 5.386 3.247 3.442 4.892 3.945 4.031 1.233-.727-2.293-12.901-22.613-14.812-24.725-1.61-1.778-1.88-3.868-.5-3.868.853 0 12.152 7.813 18.346 12.685 2.121 1.668 3.487 1.979 6.663 1.517 2.197-.32 5.208-.704 6.694-.853 1.484-.149 2.96-.532 3.279-.851.703-.702-6.967-6.428-10.392-7.759-1.348-.523-3.115-1.552-3.925-2.284-2.487-2.251-22.791-12.043-27.473-13.25-2.428-.626-5.298-1.697-6.377-2.378-1.079-.682-4.439-2.163-7.467-3.29-3.029-1.126-7.64-3.402-10.249-5.057-2.609-1.654-5.209-3.019-5.778-3.033-1.885-.045-31.534-20.178-33.882-23.009-1.707-2.055-3.191-1.895-2.073.224m178.658.421c0 .674 1.92 3.228 4.27 5.675 2.35 2.448 7.5 7.873 11.45 12.054 3.94 4.182 7.56 7.604 8.02 7.604 2.24 0-5.97-10.712-14.88-19.44-6.07-5.935-8.86-7.793-8.86-5.893m-256.544 7.918c-.813 1.754-2.878 5.342-4.589 7.976-2.519 3.876-2.894 5.088-1.967 6.377.629.874 1.55 2.523 2.048 3.663 1.097 2.518 3.22 3.163 13.072 3.972l7.604.623-.004-3.825c-.003-3.44-2.478-9.554-6.9-17.049-3.382-5.733-7.091-6.427-9.264-1.737m195.394 5.018c3.42 2.862 12.63 8.643 16.26 10.21 3.86 1.665 3.4-.404-.49-2.21-1.75-.814-6.28-3.457-10.06-5.872-7.52-4.814-10.049-5.755-5.71-2.128m-507.787 6.314c.208.604 35.188 28.949 77.734 62.989 67.248 53.804 77.564 61.726 78.949 60.623.876-.698 2.269-1.792 3.095-2.431s4.54-3.619 8.25-6.622c3.712-3.003 7.023-5.439 7.359-5.413 1.066.084 66.332 82.603 66.627 84.239.155.861-1.832 4.218-4.415 7.458s-5.998 7.654-7.588 9.807c-1.591 2.154-3.159 4.137-3.485 4.406s-3.219 3.802-6.429 7.849-6.278 7.845-6.817 8.44-4.513 5.624-8.83 11.177-10.277 13.034-13.245 16.625a979 979 0 0 0-8.83 10.84c-1.889 2.372-4.317 5.346-5.396 6.61l-1.962 2.298-4.906-4.093a339 339 0 0 0-10.035-7.984l-5.129-3.891-73.36 58.716c-40.348 32.294-74.243 59.457-75.322 60.367-1.079.9-3.066 2.55-4.415 3.65-1.665 1.36-1.982 2.01-.985 2.04.807.01 17.804-5.49 37.773-12.23 19.968-6.739 90.182-30.301 156.031-52.358l119.726-40.104 2.856 3.796c2.905 3.863 4.394 3.674 4.427-.561.008-1.048 1.781-4.878 3.939-8.511s3.925-7.255 3.925-8.051c0-.795 2.333-4.47 5.185-8.168 7.1-9.207 11.592-22.39 10.814-31.742-.387-4.644-.099-7.412 1.055-10.176.873-2.089 1.593-5.399 1.599-7.356.022-6.063 3.737-16.477 11.593-32.502l4.569-9.321-.094-21.093c-.052-11.601-.635-27.275-1.295-34.829a2771 2771 0 0 1-2.06-25.018 1840 1840 0 0 0-1.537-18.883l-.679-7.602-7.707.147c-7.586.145-8.619.503-6.779 2.35.583.587-.695 2.932-3.452 6.328l-8.041 9.905c-2.015 2.48-6.941 8.691-10.949 13.803l-7.286 9.294-66.788-22.476c-36.732-12.361-68.773-23.074-71.202-23.807-5.179-1.562-172.29-57.788-175.017-58.887-1.205-.486-1.718-.362-1.471.352m890.247 7.178c-12.41 4.238-55.68 18.764-96.15 32.281s-74.24 24.842-75.05 25.168c-1.17.471-1.07.715.49 1.193 1.08.33 3.15 1.408 4.6 2.395 2.44 1.653 3.4 1.7 12.16.597 10.92-1.374 28.79-.709 36.22 1.347 10.04 2.781 19.29 8.948 24.11 16.073 1.75 2.594 3.32 4.885 3.49 5.093.16.207 4.6-3.104 9.86-7.358 5.26-4.255 10.76-8.619 12.22-9.698 3.43-2.529 90.15-72 92.05-73.739 1.26-1.155 1.26-1.299 0-1.186-.79.071-11.59 3.596-24 7.834m-229.12 43.117c-.8 1.485-.79 2.38.02 3.359 1.6 1.931 20.41 16.2 21.35 16.2.44 0 1.43.883 2.21 1.962s1.84 1.963 2.36 1.963 3.47 1.98 6.55 4.401 6.75 4.837 8.16 5.371c1.97.751 2.55 1.645 2.55 3.938 0 1.633.35 2.968.79 2.968.43 0 1.5 2.098 2.37 4.66 1.17 3.436 1.72 9.978 2.11 24.905.71 27.737 2.99 33.841 14.7 39.43 8 3.813 12.65 4.851 19.89 4.432 12.61-.729 25.9-9.501 33.93-22.41 4.78-7.672 5.97-12.576 6.4-26.391.53-17.119-1.12-20.555-12.49-25.988-6.34-3.024-6.49-3.044-21.59-2.922-15.05.121-20.78.913-20.34 2.812.14.593 6.38 1.062 15.77 1.184 17.83.232 23.94 1.557 28.92 6.264 3.43 3.24 4.57 5.505 6.01 11.927 1.13 5.017-.09 3.625-2.36-2.696-2.02-5.615-5.35-9.584-9.74-11.628-4.09-1.901-15.32-3.156-15.32-1.713 0 .593.64 1.077 1.42 1.077s2.58.996 3.99 2.215c2.21 1.898 2.44 2.579 1.6 4.781-1.18 3.11-6.62 6.643-11.44 7.424-3.65.592-11.81-1.311-20.35-4.751-6.72-2.711-8.11-1.66-9.53 7.242-1.48 9.237-2.11 10.631-1.46 3.202 1.71-19.553 1.63-22.389-.73-26.378-1.57-2.658-3.5-4.295-6.36-5.407-2.27-.876-5.45-2.863-7.06-4.414-2.78-2.655-11.39-9.056-20.22-15.035-2.16-1.46-7.5-5.209-11.87-8.331-4.36-3.123-8.21-5.678-8.55-5.678-.33 0-1.1.911-1.69 2.025m-219.734 18.949c-.006 1.288 5.903 11.5 8.439 14.586 1.218 1.48 2.509 3.623 2.87 4.76s2.82 5.444 5.464 9.571 4.807 8.001 4.807 8.61c0 .608.637 1.634 1.416 2.281s3.04 4.342 5.025 8.214c1.984 3.871 4.166 7.701 4.847 8.511s2.163 3.312 3.293 5.561 3.345 6.001 4.921 8.339 3.683 6.016 4.682 8.174c.998 2.159 2.084 4.146 2.412 4.415s2.461 3.802 4.742 7.849c2.279 4.047 4.663 8.02 5.297 8.83.635.809 2.015 3.237 3.068 5.396 1.051 2.158 2.813 5.237 3.911 6.84 1.11 1.604 3.14 5.136 4.52 7.849s4.14 7.735 6.13 11.159 3.62 6.625 3.62 7.113c0 1.991-2.89.641-7.44-3.477-2.65-2.4-7.692-6.71-11.2-9.577s-7.26-5.953-8.339-6.858a826 826 0 0 0-6.377-5.246c-4.199-3.425-11.725-9.935-21.534-18.627-2.456-2.176-6.673-5.692-9.371-7.814s-5.568-4.547-6.377-5.389c-2.327-2.421-12.419-10.802-13.008-10.802-.292 0 3.066 3.674 7.464 8.166 11.996 12.249 19.725 20.464 32.009 34.021 6.111 6.745 14.308 15.575 18.214 19.622 9.266 9.599 30.869 34.545 30.869 35.645 0 .266 3.48 5.351 7.74 11.301 4.26 5.949 8.98 13.26 10.49 16.246 3.04 5.989 4.31 6.748 1.99 1.176-.82-1.947-1.28-3.54-1.03-3.54s-.21-1.599-1.03-3.553c-.82-1.955-1.49-4.273-1.49-5.151s-.57-2.701-1.26-4.05-1.84-4.44-2.55-6.868c-.72-2.428-1.89-5.96-2.61-7.849-.73-1.888-1.61-4.979-1.97-6.867-.36-1.889-1.17-4.096-1.81-4.906-1.44-1.841-2.02-6.867-.79-6.867 1.13 0 10.44 17.407 12.73 23.791.92 2.563 2.01 4.66 2.42 4.66s.75.795.75 1.766c0 .972.39 2.186.87 2.698.48.514 2.52 6.147 4.52 12.519 2.01 6.373 3.85 11.385 4.1 11.136.67-.672-2.53-31.412-4.16-39.892-2.31-12.085-3.43-15.837-6.91-23.289-1.83-3.906-3.32-7.394-3.32-7.751s-2.21-4.091-4.91-8.297-4.91-8.065-4.91-8.578c0-.511-.66-1.187-1.48-1.5-.82-.314-1.87-1.575-2.34-2.803s-2.89-4.992-5.38-8.365c-2.49-3.372-6.51-8.89-8.93-12.263-6.46-9.004-10.65-14.727-12.011-16.415-9.063-11.231-15.345-19.297-16.688-21.429-1.574-2.499-12.769-16.055-21.307-25.799-2.184-2.493-5.074-5.8-6.423-7.35s-4.825-5.471-7.724-8.713-6.097-7.219-7.109-8.838-1.84-2.556-1.842-2.082m223.764 17.605c-5.44 12.024-12.1 24.615-21.54 40.682-3.57 6.091-7.53 12.934-8.79 15.207-1.25 2.272-3.35 5.537-4.66 7.255-1.3 1.718-2.37 3.365-2.37 3.661s-1.64 3.083-3.65 6.197c-10.5 16.24-12.63 21.122-14.97 34.177-1.15 6.44-2.74 14.136-3.53 17.104-.8 2.968-2.74 13.784-4.32 24.037s-3.52 22.393-4.3 26.98c-3.07 17.97-4.63 28.692-4.24 29.085.22.225 1.16-.737 2.08-2.139s2.35-3.346 3.19-4.323c1.44-1.688 4.68-.713 67.38 20.322 188.01 63.07 249.29 83.496 249.59 83.206.17-.18-7.09-6.25-16.15-13.49-37.44-29.901-126.51-101.155-128.35-102.679-11.02-9.089-12.59-10.06-13.38-8.251-.18.413-4.48 4.009-9.56 7.992-8.72 6.842-9.3 7.139-10.57 5.382-.73-1.023-15.34-19.415-32.46-40.871-17.13-21.457-31.54-40.08-32.04-41.385-.78-2.047-.16-3.296 4.48-9.062 2.96-3.68 8.84-11.052 13.08-16.384l7.7-9.693-1.61-5.023c-3.24-10.109-3.65-13.227-4.22-32.003-.69-22.436-1.27-24.512-8.36-29.476-2.66-1.865-6.92-4.96-9.46-6.877-2.55-1.918-5.09-3.764-5.65-4.1-.57-.343-2.03 1.623-3.32 4.469m100.5 12.69c-2.63 4.449-9.75 11.218-19.17 18.234-4.47 3.323-7.76 6.041-7.33 6.041.44 0 2.24-1.103 4.01-2.452s3.48-2.453 3.8-2.453c.86 0 13.26-10.636 16.93-14.521 2.97-3.148 4.86-6.735 3.99-7.598-.21-.212-1.22 1.025-2.23 2.749m-280.585 2.201c1.566 2.158 3.452 4.543 4.19 5.301 1.259 1.291 7.073 8.704 11.484 14.642 1.079 1.453 6.521 8.155 12.101 14.896 23.22 28.049 41.21 50.673 42.12 52.969.32.809.85 1.692 1.18 1.962 1.19.962 6.9 16.621 6.9 18.919 0 1.286.32 2.658.71 3.05s1.27 3.431 1.94 6.755c1.47 7.171.3 9.504-2.36 4.732-3.51-6.289-15.12-24.172-16.62-25.607-1.4-1.337-1.41-1.198-.04 1.52.82 1.644 2.39 5.617 3.48 8.83 1.09 3.211 3.35 9.591 5.03 14.177 4.42 12.082 7.86 24.115 7.86 27.486 0 1.611.39 2.928.87 2.928.47 0 1.17 2.538 1.54 5.642.86 7.177 1.55 10.056 2.4 10.056.38 0 .51-1.478.3-3.287-.23-1.986.58-5.769 2.05-9.565 2.79-7.153 2.82-7.561 1.6-17.562-.5-4.047-1.35-11.773-1.9-17.169-.54-5.396-1.7-14.005-2.57-19.132-.87-5.126-1.65-9.762-1.74-10.301-.08-.54-.42-1.423-.75-1.963-.33-.539-1.36-4.292-2.29-8.339-2.6-11.271-7.22-25.972-9.33-29.664-.53-.937-.97-2.186-.97-2.776 0-1.464-8.06-18.699-8.52-18.232-.44.437 1.32 8.079 3.31 14.372.77 2.428 2.02 7.726 2.77 11.773.76 4.047 1.59 8.241 1.84 9.32 1.74 7.302 1.8 8.339.47 8.278-.74-.034-3.99-3.174-7.23-6.98-3.24-3.805-6.33-7.424-6.87-8.043s-3.6-4.21-6.81-7.981c-3.2-3.772-6.55-7.52-7.43-8.33-.89-.809-3.34-3.674-5.46-6.366-2.11-2.691-4.56-5.561-5.44-6.377-.87-.815-7.442-8.105-14.599-16.199-14.855-16.798-17.227-19.265-13.216-13.735m73.345 4.905c.32 1.079 1.87 6.598 3.45 12.264 6.05 21.63 9.33 32.936 10.1 34.829.69 1.71 3.68 11.888 5.17 17.66.28 1.079.26-2.012-.03-6.868-.3-4.857-1.18-11.258-1.97-14.226-.78-2.968-1.64-6.5-1.9-7.849-1.15-5.853-4.47-15.098-9.18-25.534-4.89-10.834-6.83-14.368-5.64-10.276m-18.4 2.208c.39.944 2.18 5.469 3.95 10.056 1.78 4.587 5.09 12.975 7.35 18.641 2.27 5.666 5.54 14.275 7.27 19.131 1.73 4.857 3.86 10.375 4.72 12.264.87 1.888 2.94 7.628 4.6 12.754s3.44 10.203 3.95 11.283c.51 1.079 1.65 4.39 2.53 7.358 2.11 7.069 2.5 7.981 1.93 4.415-.26-1.619-.95-6.255-1.54-10.302s-2.31-12.435-3.82-18.641-3.32-13.931-4.02-17.169c-.7-3.237-1.58-6.328-1.95-6.867-.37-.54-1.89-4.205-3.38-8.145-2.9-7.718-9.78-19.865-14.81-26.194-1.72-2.158-3.86-5.358-4.75-7.113-1.68-3.311-3.3-4.485-2.03-1.471m38.39 9.075c.31 1.888.97 5.2 1.47 7.358.5 2.159 1.11 5.249 1.37 6.868.25 1.619.89 5.371 1.42 8.339s1.88 11.126 2.99 18.128c1.12 7.003 2.23 12.926 2.47 13.163 1.18 1.183.27-23.514-1.09-29.266-.83-3.542-2.14-9.089-2.9-12.326s-2.49-8.094-3.84-10.792c-2.32-4.637-2.42-4.718-1.89-1.472m17.44 8.828c1.65 5.934 3.28 10.79 3.61 10.792.93.003 0-4.623-2.72-13.488-3.66-11.99-4.38-9.82-.89 2.696m-830.515 33.658c-9.924 2.811-18.081 9.7-23.125 19.533-3.876 7.552-4.424 19.765-1.289 28.649 2.671 7.563 9.13 14.8 16.312 18.274 5.519 2.67 16.419 3.664 22.427 2.045 7.062-1.903 14.357-7.094 19.318-13.745 5.187-6.955 6.514-10.475 7.339-19.462 2.038-22.239-20.014-41.23-40.982-35.294m1316.405 3.315c-1.32 2.599-6.68 16.204-11.92 30.234-5.25 14.029-10.25 26.717-11.12 28.194-.87 1.476-3.36 3.551-5.54 4.611l-3.97 1.926 24.53-.009-4.31-1.663c-6.19-2.385-6.79-3.811-4.8-11.372.91-3.466 2.31-7.887 3.12-9.825l1.47-3.523h24.39l1.03 2.698c5.54 14.56 6.22 19.475 2.89 20.762-7.37 2.847-7.23 2.897 8.09 2.897 11.54 0 14.62-.249 12.76-1.033-1.35-.567-3.41-1.476-4.58-2.019-2.59-1.199-5.04-6.623-13.43-29.682-7.95-21.832-13.9-36.146-15.23-36.587-.55-.184-2.07 1.791-3.38 4.391m139.64-3.475c0 .346 1.09.903 2.42 1.237 4.39 1.102 4.76 3.341 5.19 31 .47 30.547.11 33.184-4.7 34.921-3.01 1.088-1.82 1.228 10.33 1.202 12.36-.025 13.34-.149 9.83-1.235-6.04-1.867-6.52-4.645-6.18-36.202l.28-26.332 2.31-1.875c1.27-1.03 3.37-1.874 4.66-1.874s2.35-.401 2.35-.893c0-.499-5.83-.823-13.25-.736-7.28.087-13.24.441-13.24.787m143.64-.37c-1.11.741-11 24.123-13.18 31.135-2.79 8.972-10.08 27.705-11.97 30.773-1.12 1.815-3.52 3.918-5.32 4.673-1.81.754-3.29 1.587-3.29 1.849 0 .263 5.19.443 11.53.4 9.34-.062 10.97-.272 8.58-1.108-7.13-2.501-7.83-5.719-3.84-17.697l2.53-7.607h11.7c6.43 0 11.98-.11 12.33-.245 1.12-.423 7.25 19.264 6.71 21.549-.35 1.533-1.66 2.483-4.42 3.227-2.15.579-3.91 1.257-3.91 1.507 0 .248 6.51.42 14.47.382l14.47-.068-4.12-1.831c-4.8-2.133-5.96-4.121-12.02-20.596-12.03-32.702-17.84-47.151-18.95-47.078-.13.008-.71.339-1.3.735m-1751.218 2.067c-5.136 2.333-9.99 7.246-11.068 11.204-1.653 6.059-.333 10.465 4.594 15.341 3.775 3.735 6.34 5.132 15.325 8.345 8.481 3.033 11.571 4.661 14.426 7.597 4.241 4.362 5.518 9.166 3.676 13.824-2.599 6.569-7.064 9.549-14.31 9.549-8.892 0-15.876-5.294-21.06-15.961-1.24-2.554-2.63-4.642-3.09-4.642-.787 0-.176 14.543.813 19.376.496 2.426 2.376 3.054 2.376.794 0-2.62 1.952-2.649 8.271-.122 13.372 5.35 24.923 2.226 32.378-8.761 1.938-2.855 2.52-4.939 2.52-9.02 0-11.04-4.58-15.23-24.528-22.441-12.696-4.588-16.28-8.911-13.747-16.582 3.577-10.837 18.279-11.35 27.406-.954 1.744 1.987 3.65 4.662 4.234 5.945 1.544 3.387 3.018 2.857 2.381-.857-.302-1.754-.843-5.727-1.203-8.83-.671-5.769-1.773-7.176-2.883-3.679-.765 2.412-.778 2.412-7.124-.001-6.403-2.433-14.195-2.484-19.387-.125m293.432-.96c.29.289 1.9.984 3.577 1.542 1.677.559 3.973 2.263 5.103 3.786 1.963 2.647 2.054 3.922 2.054 28.626 0 24.689-.092 25.98-2.048 28.599-1.281 1.714-3.675 3.18-6.378 3.907-3.565.958.947 1.136 25.589 1.007l29.916-.157 1.15-6.377c2.08-11.532 2.429-14.716 1.617-14.716-.441 0-1.347 1.213-2.014 2.698-2.027 4.512-8.804 11.677-13.233 13.99-3.32 1.735-5.967 2.213-12.817 2.315-13.095.195-12.529 1.673-12.22-31.902.28-30.569.31-30.689 7.773-31.882 7.509-1.2 3.424-1.823-12.42-1.893-8.897-.039-15.94.167-15.649.457m1041.396-.506c0 .345 1.78 1.34 3.96 2.212 6.69 2.676 7.06 4.638 6.28 32.737-.79 27.915-1.15 29.468-7.45 31.694-4.24 1.501-4.19 1.51 8.79 1.586 8.48.051 12.85-.267 12.45-.903-.33-.54-1.85-.981-3.38-.981s-3.82-.844-5.09-1.876l-2.32-1.876v-26.331c0-16.311.36-26.277.95-26.192 1.01.149 13.08 23.494 22.61 43.749 3.23 6.871 6.13 12.499 6.44 12.509.32.009 1.58-2.301 2.81-5.134 6.12-14.064 25.9-52.646 26.73-52.133.52.322.72 2.195.45 4.162-.28 1.967-.82 13.392-1.2 25.389-.41 12.734-1.17 22.739-1.81 24.037-.61 1.223-2.51 2.681-4.22 3.239-6.1 1.987-4.34 2.419 9.87 2.419 8.94 0 14.39-.372 14.39-.981 0-.54-1.01-.981-2.24-.981-1.22 0-3.25-.715-4.5-1.59l-2.27-1.59.34-27.597c.25-19.453.7-28.225 1.55-29.721.67-1.166 3.09-2.796 5.39-3.62 4.17-1.495 4.16-1.498-6.48-1.312l-10.66.186-4.12 9.387c-4.92 11.169-15.31 32.198-18.64 37.698l-2.37 3.914-12.33-24.975c-6.78-13.735-12.47-25.389-12.63-25.896-.34-1.021-21.3-2.23-21.3-1.229m313.95.793c0 .439.64.799 1.43.799 3.12 0 6.62 2.51 7.96 5.703 1.09 2.611 1.4 8.739 1.4 27.315 0 28.103-.34 29.675-7.01 32.033-4.02 1.423-2.6 1.514 24.79 1.586l29.06.078 1.08-5.641c.59-3.104 1.34-8.07 1.66-11.038l.58-5.396-2.43 3.807c-3.66 5.735-11.44 13.224-14.81 14.258-1.65.504-6.35 1.203-10.46 1.553-7 .597-7.64.486-10.3-1.807l-2.84-2.444.1-25.895c.05-14.242.39-27.073.75-28.514.73-2.909 5.01-5.598 8.92-5.598 1.37 0 2.5-.331 2.5-.736s-7.29-.764-16.19-.799-16.19.296-16.19.736m-1599.211.799c.81.523 2.168.958 3.018.967.85.007 2.506 1.037 3.68 2.284 2.079 2.214 2.132 2.928 2.13 28.207-.001 22.727-.212 26.361-1.716 29.37-1.299 2.601-2.429 3.512-4.659 3.755-1.619.177-3.363.728-3.875 1.226-.57.555 10.558.906 28.659.906h29.592l.975-3.679c1.776-6.706 2.92-12.451 2.553-12.819-.201-.199-1.027.919-1.837 2.486-4.248 8.214-13.144 12.548-25.715 12.528-8.771-.015-12.54-1.604-14.208-5.989-.515-1.356-.937-8.007-.937-14.78v-12.314l6.367.405c7.827.498 11.212 2.73 13.256 8.741 1.401 4.119 1.482 4.186 1.688 1.384.532-7.194.718-23.058.272-23.057-.271.001-1.543 1.983-2.829 4.406-2.621 4.94-5.804 6.373-14.187 6.381l-4.755.006.34-13.655c.186-7.51.569-13.884.85-14.165 1.33-1.325 15.655-1.757 21.067-.633 5.171 1.074 6.483 1.878 11.61 7.118l5.781 5.907-.645-3.323a391 391 0 0 0-1.676-7.984l-1.033-4.66-27.619.015c-18.194.01-27.116.339-26.147.966m103.19.136c-4.807 1.384-11.31 8.422-14.014 15.162-1.995 4.974-2.315 7.397-2.258 17.078.073 12.314 2.031 19.65 7.034 26.352 5.073 6.795 16.646 9.07 24.246 4.766 9.536-5.401 16.008-24.017 13.375-38.476-1.5-8.235-7.054-19.073-11.2-21.856-5.843-3.922-10.952-4.822-17.183-3.026m57.824.457c1.993.828 4.088 2.63 4.787 4.118.834 1.78 1.44 10.55 1.85 26.761l.61 24.113 2.838 3.72c4.021 5.273 10.023 7.675 20.486 8.201 13.83.694 22.917-3.182 27.217-11.61 2.198-4.307 3.826-20.339 3.883-38.236.038-11.305 1.685-15.434 6.896-17.277 3.046-1.077 1.992-1.212-9.321-1.186-11.145.024-12.293.171-9.097 1.165 5.268 1.638 6.563 3.391 7.748 10.49 1.173 7.022.389 32.782-1.226 40.311-2.148 10.015-12.108 15.117-24.886 12.748-9.941-1.843-14.638-6.984-15.734-17.222-1.067-9.956-.065-38.909 1.453-41.994.834-1.697 2.772-3.182 5.337-4.093 3.847-1.363 3.342-1.429-11.179-1.455-14.429-.026-15.025.049-11.662 1.446m1309.187.432c2.56 1.245 4.93 3.532 6.8 6.574l2.88 4.665.13 48.729-2.32 1.88c-1.27 1.034-3.81 1.88-5.64 1.88s-3.33.441-3.33.981c0 .607 5.24.981 13.74.981s13.74-.374 13.74-.981c0-.54-1.3-.981-2.89-.981-3.94 0-7.82-3.61-8.95-8.34-1.29-5.368-2.44-42.692-1.32-42.622.49.03 2.77 2.347 5.07 5.15s6.66 7.966 9.69 11.473 9.76 11.421 14.95 17.586c16.24 19.271 16.13 19.158 16.9 17.092.38-.996.74-13.624.81-28.062s.39-27.549.7-29.138c.71-3.554 2.76-5.484 7.78-7.321 3.67-1.345 3.19-1.412-9.88-1.381-10.73.025-12.95.24-10.16.985 8.11 2.16 9.58 6.741 9.52 29.749-.06 21.739.28 21.399-9.81 9.743-22.35-25.836-27.11-31.405-30.64-35.852l-3.81-4.796-17.89.098zm-53.77 10.412c-1.62 3.162-9.52 24.442-9.52 25.632 0 .428 5.08.884 11.29 1.015 6.2.129 11.28.099 11.28-.069 0-.607-10.85-28.589-11.23-28.972-.22-.218-1.04.859-1.82 2.394m280 2.531c-1.7 3.883-8.92 23.244-8.92 23.914 0 .572 22.58.248 22.6-.325.06-1.352-10.31-28.716-10.89-28.722-.3-.003-1.56 2.307-2.79 5.133m-958.453-.478c.806.944 3.751 4.587 6.545 8.094 2.794 3.508 5.652 7.04 6.35 7.849.699.809 3.972 4.783 7.273 8.83 3.303 4.047 7.028 8.505 8.28 9.907s4.766 5.376 7.81 8.83c3.043 3.455 6.954 7.826 8.69 9.715l3.158 3.434-2.805-3.988c-2.746-3.905-4.4-6.091-15.921-21.035-5.715-7.414-29.278-33.353-30.299-33.353-.301 0 .112.773.919 1.717m50.796 26.245c6.176 7.014 14.341 15.985 18.142 19.934 3.803 3.949 7.214 7.701 7.58 8.339s4.967 5.549 10.225 10.915c10.921 11.143 9.801 8.16-2.434-6.483-7.532-9.016-38.176-40.519-42.787-43.988-1.076-.809 3.098 4.268 9.274 11.283m-66.675 7.33c8.656 7.906 37.282 28.032 37.282 26.212 0-.494-19.414-14.581-28.452-20.645-2.968-1.991-6.941-4.763-8.83-6.161l-3.434-2.542zm106.655 18.69c2.046 2.98 5.045 7.1 6.663 9.155 4.778 6.069 19.244 23.607 20.344 24.672 1.49 1.443-.26-1.598-2.9-5.02-1.2-1.556-5.05-6.582-8.55-11.169-5.945-7.787-8.554-10.94-16.238-19.621-2.617-2.958-2.522-2.682.681 1.983m-118.208 11.033c-3.262 3.366-11.013 17.421-11.013 19.971 0 .972.746 1.378 2.154 1.174 1.595-.232 2.697-1.721 4.255-5.753 1.156-2.991 3.719-7.966 5.695-11.056 5.19-8.114 4.651-10.259-1.091-4.336m-5.126 35.057c-4.642.273 7.106.825 26.49 1.242 19.157.414 39.686.937 45.622 1.164 8.452.324 9.835.212 6.377-.515-2.428-.51-16.777-1.154-31.886-1.429s-29.899-.602-32.867-.727c-2.968-.123-9.149-.004-13.736.265m-24.282 7.472c-.674.298-1.227 1.345-1.227 2.329 0 1.708 1.897 1.778 41.452 1.53 22.798-.143 53.042-.323 67.207-.399 21.667-.117 25.754-.363 25.754-1.548 0-1.184-3.741-1.423-23.302-1.493-12.815-.046-42.506-.28-65.979-.522-23.474-.241-43.23-.195-43.905.103m-3.972 6.772c-3.571 2.583-1.299 4.063 5.901 3.843 3.391-.104 35.745-.49 71.899-.858 49.864-.508 128.955-1.407 133.875-1.521.24-.005.02-.406-.49-.89-.53-.5-45.935-1.167-104.932-1.542-96.029-.612-104.171-.537-106.253.968m127.36 77.687c-4.103 2.117-5.866 5.299-5.885 10.617-.047 12.93 17.521 15.19 21.617 2.78 3.113-9.438-6.892-17.956-15.732-13.397m19.609 9.617c0 9.37.249 11.28 1.472 11.28 1.111 0 1.471-1.2 1.471-4.91v-4.9h5.291c3.798 0 5.45-.42 5.856-1.47.463-1.21-.489-1.48-5.291-1.48h-5.856v-6.863h6.377c5.015 0 6.377-.315 6.377-1.472 0-1.185-1.526-1.472-7.849-1.472h-7.848zm-18.151-7.158c-5.173 2.967-6.054 9.658-1.828 13.888 5.357 5.36 13.111 1.67 13.111-6.24 0-6.801-5.849-10.764-11.283-7.648m-210.892 22.288c-.556.9-20.396 16.57-22.994 18.16-.75.46-4.061 1.81-7.359 3l-5.995 2.15-.507 108.23h39.261v-66.22c0-40.73-.355-66.23-.923-66.23-.509 0-1.175.41-1.483.91m152.516 96.22h108.903v15.7H905.047l.26 27.71c.143 15.25.591 27.61.997 27.47.405-.13 31.654-.24 69.444-.24h68.712l-.56-23.06-109.389-.5v-12.74h109.909l-.52-61.32-138.823-.5z" clip-rule="evenodd"/></g><defs><clipPath><path fill="currentColor" d="M0 0h2000v1497H0z"/></clipPath></defs></svg>
